<svg width="40" height="40" viewBox="0 0 40 40" fill="none" xmlns="http://www.w3.org/2000/svg">
<path d="M38.0987 22.0912C35.5637 19.5563 31.4538 19.5563 28.9189 22.0912C26.8226 24.1875 26.413 27.4379 27.9237 29.9888L32.1073 37.0526H8.25444C6.19749 37.0526 4.52405 35.3791 4.52405 33.3221C4.52405 31.2652 6.19749 29.5917 8.25444 29.5917H19.4723C22.8216 29.5917 25.5465 26.8669 25.5465 23.5176C25.5465 20.1683 22.8216 17.4435 19.4723 17.4435H7.89273L12.0762 10.3797C13.587 7.82884 13.1774 4.57845 11.0811 2.48212C8.54616 -0.0527978 4.43624 -0.0527978 1.90132 2.48212C-0.195009 4.57837 -0.604618 7.82876 0.906163 10.3796L6.49124 19.8099L6.50468 19.7872H19.4723C21.5293 19.7872 23.2027 21.4606 23.2027 23.5176C23.2027 25.5745 21.5293 27.248 19.4723 27.248H8.25444C4.90515 27.248 2.1803 29.9728 2.1803 33.3221C2.1803 36.6714 4.90515 39.3963 8.25444 39.3963H33.4953L33.5087 39.4191L39.0938 29.9888C40.6046 27.4379 40.195 24.1875 38.0987 22.0912ZM6.49116 9.11822C5.36288 9.11822 4.44499 8.20033 4.44499 7.07205C4.44499 5.94376 5.36288 5.02587 6.49116 5.02587C7.61944 5.02587 8.53733 5.94376 8.53733 7.07205C8.53733 8.20033 7.61944 9.11822 6.49116 9.11822ZM33.4211 28.7274C32.2928 28.7274 31.3749 27.8095 31.3749 26.6812C31.3749 25.5529 32.2928 24.635 33.4211 24.635C34.5494 24.635 35.4673 25.5529 35.4673 26.6812C35.4673 27.8095 34.5494 28.7274 33.4211 28.7274Z" fill="#0096D9"/>
</svg>
