<svg width="40" height="40" viewBox="0 0 40 40" fill="none" xmlns="http://www.w3.org/2000/svg">
<path d="M37.3405 20.5181C37.1796 20.1888 37.1796 19.8111 37.3405 19.4819L38.8324 16.43C39.663 14.7307 39.0049 12.7053 37.3341 11.8188L34.3334 10.2267C34.0096 10.0549 33.7877 9.74931 33.7243 9.38845L33.1374 6.04246C32.8106 4.1795 31.0874 2.92763 29.215 3.19255L25.8515 3.66833C25.4884 3.71958 25.1294 3.60286 24.8661 3.3481L22.4246 0.986238C21.0652 -0.32891 18.9355 -0.328989 17.5761 0.986238L15.1346 3.34833C14.8711 3.60318 14.5121 3.71966 14.1492 3.66857L10.7857 3.19279C8.91265 2.92771 7.19 4.17974 6.86321 6.04269L6.27634 9.38853C6.21298 9.74947 5.99102 10.055 5.66736 10.2268L2.66659 11.819C0.99582 12.7054 0.337699 14.7309 1.16832 16.4302L2.66011 19.4821C2.82104 19.8114 2.82104 20.189 2.66011 20.5182L1.16824 23.5701C0.33762 25.2694 0.995742 27.2948 2.66651 28.1812L5.66728 29.7734C5.99103 29.9451 6.21298 30.2508 6.27634 30.6116L6.86321 33.9576C7.16071 35.6535 8.61492 36.8429 10.2862 36.8427C10.4508 36.8427 10.6179 36.8312 10.7858 36.8074L14.1493 36.3317C14.512 36.2802 14.8712 36.3971 15.1346 36.6519L17.5761 39.0138C18.256 39.6714 19.128 40.0002 20.0003 40.0001C20.8724 40 21.745 39.6712 22.4245 39.0138L24.8661 36.6519C25.1295 36.3971 25.4886 36.2807 25.8515 36.3317L29.215 36.8074C31.0882 37.0724 32.8106 35.8205 33.1374 33.9575L33.7244 30.6117C33.7877 30.2508 34.0097 29.9452 34.3334 29.7734L37.3341 28.1812C39.0049 27.2948 39.663 25.2693 38.8324 23.57L37.3405 20.5181ZM15.3862 9.61838C17.7184 9.61838 19.6158 11.5158 19.6158 13.848C19.6158 16.1801 17.7184 18.0775 15.3862 18.0775C13.054 18.0775 11.1566 16.1801 11.1566 13.848C11.1566 11.5158 13.054 9.61838 15.3862 9.61838ZM13.2031 28.4284C12.9779 28.6537 12.6826 28.7663 12.3875 28.7663C12.0923 28.7663 11.797 28.6537 11.5719 28.4284C11.1214 27.978 11.1214 27.2476 11.5719 26.7971L26.7975 11.5715C27.2479 11.121 27.9783 11.121 28.4288 11.5715C28.8792 12.022 28.8792 12.7523 28.4288 13.2028L13.2031 28.4284ZM24.6143 30.3817C22.2821 30.3817 20.3847 28.4843 20.3847 26.1521C20.3847 23.8199 22.2821 21.9225 24.6143 21.9225C26.9464 21.9225 28.8439 23.8199 28.8439 26.1521C28.8439 28.4843 26.9464 30.3817 24.6143 30.3817Z" fill="#0096D9"/>
</svg>
