<svg width="40" height="40" viewBox="0 0 40 40" fill="none" xmlns="http://www.w3.org/2000/svg">
<path d="M1.11714 22.8909L3.72741 23.3187C4.1398 25.3174 4.92903 27.2194 6.0529 28.9229L4.50712 31.0803C4.18639 31.5169 4.1919 32.1128 4.5207 32.5434C4.91046 33.0198 5.32463 33.4758 5.76143 33.9095C6.20211 34.3509 6.65636 34.7577 7.12421 35.1509C7.5551 35.4804 8.15175 35.4859 8.58869 35.1645L10.7447 33.618C12.4466 34.7425 14.3472 35.5323 16.3449 35.9449L16.772 38.5572C16.8534 39.0915 17.2798 39.5069 17.8161 39.5742C18.1876 39.6162 18.5619 39.6419 18.9443 39.661C19.13 39.67 19.3114 39.603 19.4465 39.4753C19.5816 39.3476 19.6588 39.1703 19.6602 38.9843V33.5509C19.6583 33.1847 19.3673 32.8853 19.0013 32.8729C12.1499 32.5178 6.77677 26.8589 6.77677 19.9983C6.77677 13.1377 12.1499 7.47889 19.0013 7.12371C19.3673 7.11131 19.6583 6.81203 19.6602 6.4457V1.01704C19.6593 0.831214 19.5826 0.653789 19.4478 0.525773C19.3131 0.397756 19.1319 0.330369 18.9463 0.33903C18.5652 0.354843 18.1885 0.381549 17.816 0.419016C17.2796 0.492112 16.8549 0.9091 16.772 1.44413L16.3448 4.05643C14.3472 4.46961 12.4466 5.2595 10.7446 6.38395L8.58862 4.8368C8.15168 4.51535 7.55504 4.52086 7.12414 4.85038C6.64902 5.24066 6.19417 5.65503 5.76136 6.09177C5.32128 6.52234 4.90698 6.9785 4.52064 7.45789C4.19046 7.88905 4.18495 8.48648 4.50705 8.92368L6.05283 11.0811C4.92922 12.784 4.14 14.6852 3.72734 16.6833L1.11708 17.1104C0.58257 17.1921 0.167288 17.6187 0.100097 18.1552C-0.0333656 19.372 -0.0333656 20.5996 0.100097 21.8163C0.160398 22.3617 0.575812 22.8007 1.11714 22.8909Z" fill="#0096D9"/>
<path d="M19.0119 9.85115C13.6556 10.1905 9.48499 14.6336 9.48499 20.0006C9.48499 25.3676 13.6557 29.8108 19.0119 30.1501C19.1823 30.1572 19.3482 30.094 19.4707 29.9753C19.5932 29.8566 19.6616 29.6928 19.66 29.5223V10.479C19.6617 10.3084 19.5932 10.1447 19.4707 10.026C19.3482 9.90726 19.1823 9.84407 19.0119 9.85115Z" fill="#0096D9"/>
<path d="M24.406 10.5088H21.0161V11.8648H24.406C25.528 11.8614 26.4366 10.9528 26.44 9.83082V5.63817C27.374 5.30799 27.9342 4.35295 27.7667 3.37659C27.5992 2.40022 26.7526 1.68658 25.762 1.68658C24.7714 1.68658 23.9248 2.40022 23.7573 3.37659C23.5898 4.35295 24.15 5.30799 25.084 5.63817V9.83082C25.084 10.2053 24.7804 10.5088 24.406 10.5088Z" fill="#0096D9"/>
<path d="M21.016 14.5768H27.7959C28.1703 14.5768 28.4739 14.2732 28.4739 13.8987C28.4739 13.5243 28.1703 13.2207 27.7959 13.2207H21.016V14.5768Z" fill="#0096D9"/>
<path d="M21.016 29.4924H24.4059C24.7804 29.4924 25.0839 29.7959 25.0839 30.1704V34.3631C24.1499 34.6932 23.5897 35.6483 23.7572 36.6246C23.9247 37.601 24.7713 38.3146 25.7619 38.3146C26.7525 38.3146 27.5991 37.601 27.7666 36.6246C27.9341 35.6483 27.3739 34.6932 26.4399 34.3631V30.1704C26.4366 29.0484 25.5279 28.1398 24.406 28.1364H21.0161V29.4924H21.016Z" fill="#0096D9"/>
<path d="M31.1858 22.7126H21.016V24.0685H31.1858C31.5603 24.0685 31.8638 24.3721 31.8638 24.7465V28.2613C30.9298 28.5914 30.3696 29.5465 30.5371 30.5228C30.7046 31.4992 31.5511 32.2128 32.5418 32.2128C33.5324 32.2128 34.379 31.4992 34.5465 30.5228C34.714 29.5465 34.1538 28.5914 33.2198 28.2613V24.7465C33.2164 23.6246 32.3078 22.7159 31.1858 22.7126Z" fill="#0096D9"/>
<path d="M37.9657 17.9666C37.1068 17.9702 36.3427 18.5128 36.0565 19.3226H21.016V20.6785H36.0565C36.4029 21.6512 37.4241 22.209 38.4297 21.9749C39.4353 21.7407 40.1051 20.7893 39.9864 19.7637C39.8677 18.7381 38.9981 17.9648 37.9657 17.9666Z" fill="#0096D9"/>
<path d="M28.4739 26.1025C28.4739 25.728 28.1703 25.4245 27.7959 25.4245H21.016V26.7805H27.7959C28.1703 26.7805 28.4739 26.477 28.4739 26.1025Z" fill="#0096D9"/>
<path d="M33.2197 15.2547V11.74C34.1537 11.4099 34.7139 10.4548 34.5464 9.47845C34.3789 8.50209 33.5324 7.78845 32.5417 7.78845C31.5511 7.78845 30.7045 8.50209 30.537 9.47845C30.3695 10.4548 30.9297 11.4099 31.8637 11.74V15.2547C31.8637 15.6292 31.5601 15.9328 31.1857 15.9328H21.0159V17.2887H31.1857C32.3077 17.2853 33.2163 16.3766 33.2197 15.2547Z" fill="#0096D9"/>
</svg>
