<svg width="40" height="40" viewBox="0 0 40 40" fill="none" xmlns="http://www.w3.org/2000/svg">
<path d="M34.2258 21.3532H31.1323C31.4476 22.2165 31.6199 23.1481 31.6199 24.1191V35.8105C31.6199 36.2154 31.5494 36.604 31.4212 36.9654H36.5354C38.4458 36.9654 39.9999 35.4112 39.9999 33.5009V27.1273C40 23.9435 37.4097 21.3532 34.2258 21.3532Z" fill="#0096D9"/>
<path d="M8.38009 24.1192C8.38009 23.1481 8.55236 22.2165 8.86767 21.3532H5.77423C2.59032 21.3532 0 23.9436 0 27.1275V33.501C0 35.4113 1.55414 36.9655 3.46454 36.9655H8.57877C8.45056 36.604 8.38009 36.2155 8.38009 35.8106V24.1192Z" fill="#0096D9"/>
<path d="M23.536 18.345H16.4639C13.28 18.345 10.6897 20.9353 10.6897 24.1192V35.8106C10.6897 36.4484 11.2067 36.9655 11.8445 36.9655H28.1554C28.7932 36.9655 29.3102 36.4484 29.3102 35.8106V24.1192C29.3102 20.9353 26.7199 18.345 23.536 18.345Z" fill="#0096D9"/>
<path d="M20.0001 3.03439C16.1711 3.03439 13.0559 6.14956 13.0559 9.9787C13.0559 12.576 14.4894 14.8443 16.6065 16.0353C17.6106 16.6001 18.7683 16.9229 20.0001 16.9229C21.232 16.9229 22.3897 16.6001 23.3938 16.0353C25.5109 14.8443 26.9444 12.5759 26.9444 9.9787C26.9444 6.14963 23.8292 3.03439 20.0001 3.03439Z" fill="#0096D9"/>
<path d="M7.80616 9.50696C4.94248 9.50696 2.61279 11.8366 2.61279 14.7003C2.61279 17.564 4.94248 19.8937 7.80616 19.8937C8.53257 19.8937 9.22429 19.7432 9.85265 19.4728C10.9391 19.005 11.8348 18.1771 12.3891 17.1399C12.7782 16.412 12.9995 15.5817 12.9995 14.7003C12.9995 11.8367 10.6698 9.50696 7.80616 9.50696Z" fill="#0096D9"/>
<path d="M32.1939 9.50696C29.3302 9.50696 27.0005 11.8366 27.0005 14.7003C27.0005 15.5817 27.2218 16.4121 27.6109 17.1399C28.1652 18.1771 29.061 19.0051 30.1474 19.4728C30.7757 19.7432 31.4675 19.8937 32.1939 19.8937C35.0575 19.8937 37.3872 17.564 37.3872 14.7003C37.3872 11.8366 35.0575 9.50696 32.1939 9.50696Z" fill="#0096D9"/>
</svg>
