<svg width="40" height="40" viewBox="0 0 40 40" fill="none" xmlns="http://www.w3.org/2000/svg">
<g clip-path="url(#clip0_15_833)">
<path d="M39.8579 33.2047L35.0502 13.8935C34.526 11.7889 32.6464 10.3194 30.4777 10.3194H24.6841C27.5777 6.47563 24.8208 0.944611 19.9999 0.944611C15.1712 0.944611 12.4282 6.48359 15.3157 10.3194H9.57602C7.41281 10.3194 5.53391 11.7842 5.00578 13.881L0.144922 33.1922C-0.603906 36.1679 1.64344 39.0553 4.71438 39.0553H35.2854C38.3488 39.0553 40.5989 36.1785 39.8579 33.2047ZM19.9998 3.28836C21.938 3.28836 23.5154 4.86563 23.5154 6.80391C23.5154 8.74219 21.9381 10.3195 19.9998 10.3195C18.0616 10.3195 16.4843 8.74219 16.4843 6.80391C16.4843 4.86563 18.0616 3.28836 19.9998 3.28836ZM17.5968 29.954C17.1512 30.4163 16.4091 30.4353 15.9398 29.9837L12.8188 26.972V29.1399C12.8188 29.7868 12.2938 30.3118 11.647 30.3118C10.9993 30.3118 10.4751 29.7868 10.4751 29.1399V20.2348C10.4751 19.5871 10.9993 19.0629 11.647 19.0629C12.2938 19.0629 12.8188 19.5871 12.8188 20.2348V22.0816L15.6445 19.484C16.1211 19.0465 16.8625 19.0777 17.2999 19.5535C17.7382 20.0301 17.707 20.7715 17.2304 21.2097L13.6406 24.5088L17.5671 28.297C18.0327 28.7463 18.046 29.4877 17.5968 29.954ZM24.5091 30.3118C21.4076 30.3118 18.8842 27.7884 18.8842 24.687C18.8842 20.1796 23.9449 17.5166 27.6543 20.0238C28.191 20.3863 28.3316 21.1145 27.9699 21.6511C27.6074 22.187 26.8785 22.3284 26.3426 21.9659C24.1841 20.5073 21.2279 22.0546 21.2279 24.687C21.2279 28.0651 26.0976 29.468 27.0355 25.8588H25.6887C25.0418 25.8588 24.5168 25.3346 24.5168 24.687C24.5168 24.0401 25.0418 23.5151 25.6887 23.5151H28.3527C29.0003 23.5151 29.5245 24.0401 29.5245 24.687C29.5245 27.9986 27.4621 30.3118 24.5091 30.3118Z" fill="#0096D9"/>
<rect x="9.47363" y="16.8421" width="22.1053" height="15.7895" fill="#0096D9"/>
<path d="M20.9496 29.4737H19.2096V21.0337H16.0696V19.4137H24.0896V21.0337H20.9496V29.4737Z" fill="white"/>
</g>
<defs>
<clipPath id="clip0_15_833">
<rect width="40" height="40" fill="white"/>
</clipPath>
</defs>
</svg>
