<svg width="40" height="40" viewBox="0 0 40 40" fill="none" xmlns="http://www.w3.org/2000/svg">
<g clip-path="url(#clip0_5_266)">
<path d="M25 10.8333C24.08 10.8333 23.3334 10.0867 23.3334 9.16668V6.66668H16.6667V9.16668C16.6667 10.0867 15.92 10.8333 15 10.8333C14.08 10.8333 13.3334 10.0867 13.3334 9.16668V6.66668C13.3334 4.82834 14.8284 3.33334 16.6667 3.33334H23.3334C25.1717 3.33334 26.6667 4.82834 26.6667 6.66668V9.16668C26.6667 10.0867 25.92 10.8333 25 10.8333Z" fill="#0096D9"/>
<path d="M21.1833 25.6333C20.8833 25.75 20.45 25.8333 20 25.8333C19.55 25.8333 19.1167 25.75 18.7167 25.6L0 19.3667V32.0833C0 34.6167 2.05 36.6667 4.58333 36.6667H35.4167C37.95 36.6667 40 34.6167 40 32.0833V19.3667L21.1833 25.6333Z" fill="#0096D9"/>
<path d="M40 12.9167V16.7333L20.4 23.2667C20.2667 23.3167 20.1333 23.3333 20 23.3333C19.8667 23.3333 19.7333 23.3167 19.6 23.2667L0 16.7333V12.9167C0 10.3833 2.05 8.33334 4.58333 8.33334H35.4167C37.95 8.33334 40 10.3833 40 12.9167Z" fill="#0096D9"/>
</g>
<defs>
<clipPath id="clip0_5_266">
<rect width="40" height="40" fill="white"/>
</clipPath>
</defs>
</svg>
